<svg t="1584325592377" class="icon" viewBox="0 0 1024 1024" version="1.1" xmlns="http://www.w3.org/2000/svg" width="128" height="128"><path d="M415.028299 1023.730597h-4.041038C-20.056747 956.918776 0.148441 374.739962 0.148441 348.338517V140.09038A140.089303 140.089303 0 0 1 140.507146 0.001078h549.042306a140.089303 140.089303 0 0 1 139.8199 140.089302V350.224334c0 4.579843 28.556666 606.694442-410.300015 673.506263zM140.507146 53.881579A86.208802 86.208802 0 0 0 54.028942 140.09038V350.224334c0 5.657453-25.593238 555.507966 360.729954 619.625762 386.861998-63.578991 360.999357-613.429504 360.460552-619.625762V140.09038A86.208802 86.208802 0 0 0 689.549452 53.881579zM27.088691 350.224334z" ></path><path d="M652.910711 1014.840315a26.940251 26.940251 0 0 1-6.735063-53.880501C993.70488 871.24878 969.99746 355.612385 969.99746 350.224334V140.09038A86.208802 86.208802 0 0 0 883.249853 53.881579H851.460357a26.940251 26.940251 0 0 1 0-53.880501h31.789496A140.089303 140.089303 0 0 1 1023.877961 140.09038V350.224334c1.347013 21.5522 26.940251 563.051236-363.42398 664.615981a29.364873 29.364873 0 0 1-7.54327 0zM385.124621 510.249423l-78.126727 197.202633a10.237295 10.237295 0 0 0 5.926856 13.200723 9.967893 9.967893 0 0 0 10.7761-2.424622L630.550303 399.794395a10.506698 10.506698 0 0 0 0-14.547735 9.429088 9.429088 0 0 0-7.004465-2.694025h-173.764616a10.237295 10.237295 0 0 1-9.967893-10.237295 7.812673 7.812673 0 0 1 1.885818-5.926855l116.920687-161.641503a9.967893 9.967893 0 0 0-2.15522-14.278333 9.159685 9.159685 0 0 0-5.926855-1.885818h-137.125875a9.69849 9.69849 0 0 0-8.62088 4.849245L229.14057 480.615147a10.237295 10.237295 0 0 0 3.502233 14.00893 8.890283 8.890283 0 0 0 5.118648 1.616415h137.934082a10.237295 10.237295 0 0 1 10.237295 9.967893 10.7761 10.7761 0 0 1 0 4.041038" ></path></svg>
