<?xml version="1.0" standalone="no"?><!DOCTYPE svg PUBLIC "-//W3C//DTD SVG 1.1//EN" ><svg t="1584326276496" class="icon" viewBox="0 0 1024 1024" version="1.1" xmlns="http://www.w3.org/2000/svg"  xmlns:xlink="http://www.w3.org/1999/xlink" width="128" height="128"><defs><style type="text/css"></style></defs><path d="M511.99849 2.242811a32.75122 32.75122 0 0 0-32.761587 32.751219v84.65138a32.771955 32.771955 0 1 0 65.533542 0V68.978993C764.23161 85.017657 940.107423 260.862366 956.146086 480.354634h-50.687152a32.771955 32.771955 0 1 0 0 65.533542h50.687152C940.107423 765.390812 764.23161 941.225154 544.770445 957.263817v-50.687152a32.771955 32.771955 0 0 0-65.533542 0v50.687152C259.734267 941.235522 83.889558 765.390812 67.850894 545.888176h50.69752a32.771955 32.771955 0 0 0 0-65.533542H67.861262a444.873327 444.873327 0 0 1 238.226504-362.419876c-17.313877 17.334612-31.33086 31.37233-36.006643 36.079216a32.771955 32.771955 0 1 0 46.529748 46.156515c15.551386-15.686165 134.260303-134.446919 134.260303-134.446919a32.699382 32.699382 0 0 0-21.512751-55.891683L239.5382 0.262601c-20.206435-2.488222-33.466584 13.073532-34.358196 31.102773a32.720117 32.720117 0 0 0 31.040567 34.358196l26.064124 1.316684A510.48981 510.48981 0 0 0 1.114712 513.126589c0 281.697813 229.185965 510.873411 510.883778 510.873411s510.883779-229.175598 510.883779-510.873411S793.706671 2.242811 511.99849 2.242811z" ></path><path d="M735.948822 706.150397a30.190425 30.190425 0 0 0 4.209242 0.25919 32.823793 32.823793 0 0 0 32.450559-28.624919l14.079189-110.663665c0-0.25919 0.072573-0.445806 0.072573-0.704997l32.253575-252.761867a32.771955 32.771955 0 0 0-55.145216-27.857716L498.676136 538.85895a32.782323 32.782323 0 0 0 22.632451 56.482635h195.709014l-9.434508 74.149011a32.771955 32.771955 0 0 0 28.365729 36.659801zM603.098512 529.828778L742.32489 396.978468l-16.961379 132.85031zM227.304443 409.79281a32.761587 32.761587 0 0 0 28.365729 36.649434c17.459023 2.488222 34.295991-10.367591 36.649434-28.365729 5.235633-41.05566 44.311084-75.797457 85.29417-75.797457 18.174387 0 34.21305 6.821875 45.067918 19.180043 11.031117 12.56552 15.883149 29.775721 13.477868 48.333709-8.542895 66.995373-76.367675 110.528887-136.167939 148.909709-53.548607 34.358196-99.829533 64.071712-105.822001 110.798444a32.740852 32.740852 0 0 0 32.512766 36.908624h208.813649a32.771955 32.771955 0 1 0 0-65.533542H294.745622c12.814342-9.175318 27.349705-18.54762 40.609854-27.02831 68.332792-43.886012 153.37814-98.429908 165.808882-195.77122 4.779459-37.489209-5.608867-72.98784-29.319548-99.902106-23.461858-26.696547-56.938809-41.470364-94.231034-41.470364-74.739963 0.04147-140.750415 58.493948-150.309333 133.088765z" ></path></svg>
