<svg viewBox="0 0 1181 1024" xmlns="http://www.w3.org/2000/svg" width="147.625" height="128"><path d="M139.421538 524.366769h906.003693L901.907692 150.528c-16.384-40.487385-51.593846-66.717538-91.451077-66.717538h-448.196923c-39.857231 0-77.430154 28.593231-91.451077 69.080615L139.421538 524.366769z m919.709539 71.443693H127.684923v235.756307c0 61.912615 44.583385 111.931077 100.824615 111.931077h729.718154c56.32 0 100.903385-50.018462 100.903385-111.852308V595.731692z m-103.187692 419.131076H228.588308c-93.892923 0-171.323077-83.337846-171.323077-183.374769V552.96c0-4.726154 0-7.089231 2.363077-11.894154l145.486769-411.963077C230.793846 60.022154 294.281846 12.366769 362.259692 12.366769h450.56c67.977846 0 131.387077 45.292308 157.144616 111.931077l157.223384 414.326154c2.363077 4.804923 2.363077 9.531077 2.363077 11.972923v278.606769c0 104.763077-77.430154 185.737846-173.607384 185.737846z m-692.224-173.843692a36.391385 36.391385 0 0 1-35.131077-35.682461v-69.080616c0-19.062154 16.384-35.761231 35.131077-35.761231 18.825846 0 35.209846 16.699077 35.209846 35.761231v69.080616a34.816 34.816 0 0 1-35.209846 35.682461z m138.476307 0a36.391385 36.391385 0 0 1-35.209846-35.682461v-69.080616c0-19.062154 16.384-35.761231 35.209846-35.761231 18.747077 0 35.209846 16.699077 35.209846 35.761231v69.080616a36.391385 36.391385 0 0 1-35.209846 35.682461z"></path></svg>
